<svg width="50" height="50" viewBox="0 0 50 50" fill="none" xmlns="http://www.w3.org/2000/svg">
<path d="M24.9496 5C14.3012 5 5.58241 13.3789 5.00429 23.8906C4.95741 24.6094 5.29726 25.2969 5.89882 25.6953C6.50038 26.0898 7.26991 26.1328 7.91054 25.8047C8.55116 25.4766 8.96913 24.8281 8.99648 24.1094C9.46132 15.6758 16.391 9 24.9496 9C29.5355 9 33.6488 10.9258 36.559 14H33.9496C33.2269 13.9883 32.559 14.3672 32.1957 14.9922C31.8285 15.6133 31.8285 16.3867 32.1957 17.0078C32.559 17.6328 33.2269 18.0117 33.9496 18H40.2113C40.4379 18.0391 40.6684 18.0391 40.8988 18H43.9496V8C43.9574 7.46094 43.7465 6.94141 43.3637 6.55859C42.9809 6.17578 42.4613 5.96484 41.9184 5.97266C40.8168 5.98828 39.934 6.89453 39.9496 8V11.7773C36.2816 7.62109 30.9144 5 24.9496 5ZM42.9809 23.9727C41.8754 23.9258 40.9457 24.7852 40.9027 25.8906C40.4379 34.3242 33.5082 41 24.9496 41C20.3637 41 16.2543 39.0742 13.3402 36H15.9496C16.6723 36.0117 17.3402 35.6328 17.7035 35.0078C18.0707 34.3867 18.0707 33.6133 17.7035 32.9922C17.3402 32.3672 16.6723 31.9883 15.9496 32H9.66835C9.45741 31.9688 9.24648 31.9688 9.03554 32H5.9496V42C5.93788 42.7227 6.31679 43.3906 6.94179 43.7539C7.56288 44.1211 8.33632 44.1211 8.95742 43.7539C9.58242 43.3906 9.96132 42.7227 9.9496 42V38.2227C13.6176 42.3789 18.9848 45 24.9496 45C35.598 45 44.3168 36.6211 44.8949 26.1094C44.934 25.5703 44.7504 25.0391 44.391 24.6367C44.0277 24.2344 43.5199 23.9961 42.9809 23.9727Z" fill="#60CD99"/>
</svg>
